<svg width="700" height="700" viewBox="6651.0 48155.0 700 700" fill="none" xmlns="http://www.w3.org/2000/svg" xmlns:xlink="http://www.w3.org/1999/xlink">
<defs>
<clipPath id="clip139_640_59">
<rect width="500" height="500" fill="white" transform="translate(6751.75 48255)"/>
</clipPath>
</defs>
<g clip-path="url(#clip139_640_59)">
<path d="M7241.75 48265H6761.75V48745H7241.75V48265Z" fill="white" stroke="black" stroke-width="20"/>
<path d="M6847.41 48548V48460.7H6881.85C6888.44 48460.7 6894.06 48461.9 6898.72 48464.3C6903.41 48466.6 6906.97 48469.9 6909.42 48474.2C6911.89 48478.5 6913.12 48483.5 6913.12 48489.2C6913.12 48495 6911.87 48500 6909.37 48504.2C6906.87 48508.3 6903.25 48511.5 6898.51 48513.7C6893.79 48516 6888.08 48517.1 6881.38 48517.1H6858.32V48502.2H6878.39C6881.92 48502.2 6884.84 48501.7 6887.17 48500.8C6889.5 48499.8 6891.23 48498.4 6892.37 48496.4C6893.54 48494.5 6894.12 48492.1 6894.12 48489.2C6894.12 48486.3 6893.54 48483.9 6892.37 48481.9C6891.23 48479.9 6889.49 48478.4 6887.13 48477.4C6884.8 48476.3 6881.86 48475.8 6878.31 48475.8H6865.87V48548H6847.41ZM6894.54 48508.3L6916.23 48548H6895.87L6874.64 48508.3H6894.54ZM6922.84 48475.9V48460.7H6994.52V48475.9H6967.8V48548H6949.56V48475.9H6922.84ZM7037.26 48548H7006.32V48460.7H7037.51C7046.29 48460.7 7053.85 48462.5 7060.18 48466C7066.52 48469.4 7071.39 48474.4 7074.8 48480.9C7078.24 48487.4 7079.96 48495.2 7079.96 48504.3C7079.96 48513.4 7078.24 48521.2 7074.8 48527.7C7071.39 48534.2 7066.49 48539.3 7060.1 48542.8C7053.73 48546.3 7046.12 48548 7037.26 48548ZM7024.77 48532.2H7036.49C7041.94 48532.2 7046.53 48531.2 7050.25 48529.3C7054 48527.3 7056.82 48524.3 7058.69 48520.2C7060.6 48516.1 7061.55 48510.8 7061.55 48504.3C7061.55 48497.8 7060.6 48492.6 7058.69 48488.5C7056.82 48484.4 7054.02 48481.4 7050.3 48479.4C7046.58 48477.5 7041.99 48476.5 7036.53 48476.5H7024.77V48532.2ZM7140.97 48485.8C7140.63 48482.4 7139.16 48479.7 7136.58 48477.8C7133.99 48475.9 7130.49 48475 7126.05 48475C7123.04 48475 7120.5 48475.4 7118.43 48476.2C7116.35 48477.1 7114.76 48478.2 7113.65 48479.7C7112.57 48481.2 7112.03 48482.8 7112.03 48484.7C7111.98 48486.3 7112.3 48487.6 7113.01 48488.8C7113.75 48490 7114.76 48491 7116.04 48491.8C7117.32 48492.7 7118.79 48493.4 7120.47 48494C7122.15 48494.6 7123.94 48495.1 7125.84 48495.5L7133.68 48497.4C7137.49 48498.3 7140.98 48499.4 7144.16 48500.8C7147.35 48502.2 7150.1 48504 7152.43 48506.1C7154.76 48508.1 7156.56 48510.6 7157.84 48513.4C7159.15 48516.2 7159.82 48519.4 7159.85 48523.1C7159.82 48528.4 7158.45 48533 7155.75 48537C7153.08 48540.9 7149.22 48543.9 7144.16 48546C7139.14 48548.2 7133.07 48549.2 7125.97 48549.2C7118.92 48549.2 7112.79 48548.2 7107.56 48546C7102.36 48543.8 7098.3 48540.6 7095.37 48536.4C7092.47 48532.1 7090.95 48526.9 7090.81 48520.6H7108.67C7108.87 48523.5 7109.7 48526 7111.18 48527.9C7112.69 48529.9 7114.69 48531.3 7117.19 48532.3C7119.72 48533.3 7122.57 48533.8 7125.75 48533.8C7128.88 48533.8 7131.59 48533.3 7133.89 48532.4C7136.22 48531.5 7138.03 48530.2 7139.31 48528.6C7140.58 48527 7141.22 48525.1 7141.22 48523C7141.22 48521.1 7140.64 48519.4 7139.48 48518.1C7138.34 48516.7 7136.66 48515.6 7134.45 48514.7C7132.26 48513.7 7129.58 48512.9 7126.39 48512.1L7116.89 48509.7C7109.53 48507.9 7103.72 48505.1 7099.46 48501.3C7095.2 48497.5 7093.08 48492.4 7093.11 48486C7093.08 48480.7 7094.49 48476.1 7097.33 48472.1C7100.2 48468.2 7104.14 48465.1 7109.14 48462.9C7114.14 48460.6 7119.82 48459.5 7126.18 48459.5C7132.66 48459.5 7138.31 48460.6 7143.14 48462.9C7148 48465.1 7151.78 48468.2 7154.48 48472.1C7157.18 48476.1 7158.57 48480.6 7158.65 48485.8H7140.97Z" fill="black"/>
</g>
</svg>
