<?xml version="1.0" encoding="UTF-8"?>
<svg xmlns="http://www.w3.org/2000/svg"
     style="background: transparent; background-color: transparent; color-scheme: light dark;"
     xmlns:xlink="http://www.w3.org/1999/xlink"
     version="1.1"
     width="22px"
     height="22px"
     viewBox="0 0 22 22"
     content="&lt;mxfile host=&quot;app.diagrams.net&quot; scale=&quot;1&quot; border=&quot;0&quot;&gt;&#10;  &lt;diagram name=&quot;Page-1&quot; id=&quot;ZreQVm68NhX6xjPfMZLh&quot;&gt;&#10;    &lt;mxGraphModel dx=&quot;607&quot; dy=&quot;1059&quot; grid=&quot;1&quot; gridSize=&quot;10&quot; guides=&quot;1&quot; tooltips=&quot;1&quot; connect=&quot;1&quot; arrows=&quot;1&quot; fold=&quot;1&quot; page=&quot;1&quot; pageScale=&quot;1&quot; pageWidth=&quot;850&quot; pageHeight=&quot;1100&quot; math=&quot;0&quot; shadow=&quot;0&quot;&gt;&#10;      &lt;root&gt;&#10;        &lt;mxCell id=&quot;0&quot; /&gt;&#10;        &lt;mxCell id=&quot;1&quot; parent=&quot;0&quot; /&gt;&#10;        &lt;mxCell id=&quot;2&quot; parent=&quot;1&quot; style=&quot;verticalLabelPosition=bottom;verticalAlign=top;html=1;shape=mxgraph.basic.tick;rotation=0;fillColor=light-dark(#11ff00, #ededed);&quot; value=&quot;&quot; vertex=&quot;1&quot;&gt;&#10;          &lt;mxGeometry height=&quot;20&quot; width=&quot;20&quot; x=&quot;210&quot; y=&quot;290&quot; as=&quot;geometry&quot; /&gt;&#10;        &lt;/mxCell&gt;&#10;      &lt;/root&gt;&#10;    &lt;/mxGraphModel&gt;&#10;  &lt;/diagram&gt;&#10;&lt;/mxfile&gt;&#10;">

  <defs/>

  <!-- Background rectangle -->
  <rect fill="none"
        width="100%"
        height="100%"
        x="0"
        y="0"
        style="fill: light-dark(#ffffff, var(--ge-dark-color, #121212));"/>

  <g>
    <g data-cell-id="0">
      <g data-cell-id="1">
        <g data-cell-id="0v3O4Z27SLU9AHNpyZ4z-9">
          <g transform="translate(0.5,0.5)">

            <!-- Check mark / tick symbol -->
            <path d="M 0.09 13.67
                     C 0.3 13 0.83 12.43 1.56 12.12
                     C 2.28 11.81 3.12 11.78 3.88 12.03
                     C 4.97 12.49 5.82 13.3 6.25 14.29
                     C 8.2 9.48 11.17 5.03 15.01 1.17
                     C 16.1 0.31 17.63 0 19.04 0.35
                     C 19.4 0.4 19.71 0.6 19.86 0.89
                     C 20 1.19 19.96 1.52 19.75 1.78
                     C 14.54 6.88 10.65 12.9 8.38 19.42
                     C 7.04 20 5.46 20 4.11 19.42
                     C 3.1 17.47 1.74 15.67 0.09 14.08
                     C 0 13.96 0 13.8 0.09 13.67 Z"
                  fill="#11ff00"
                  stroke="#000000"
                  stroke-miterlimit="10"
                  pointer-events="all"
                  style="fill: light-dark(rgb(17, 255, 0), rgb(237, 237, 237)); stroke: light-dark(rgb(0, 0, 0), rgb(255, 255, 255));"/>

          </g>
        </g>
      </g>
    </g>
  </g>
</svg>
